<?xml version="1.0" encoding="UTF-8" standalone="no"?><!-- Generator: Gravit.io --><svg xmlns="http://www.w3.org/2000/svg" xmlns:xlink="http://www.w3.org/1999/xlink" style="isolation:isolate" viewBox="0 0 200 115" width="200pt" height="115pt"><defs><clipPath id="_clipPath_DRmhLbx0kE4vUHlFp5YS4hIfuXOz77Tg"><rect width="200" height="115"/></clipPath></defs><g clip-path="url(#_clipPath_DRmhLbx0kE4vUHlFp5YS4hIfuXOz77Tg)"><clipPath id="_clipPath_MXRSTpjtKnBESnvXHeHcxxsguLRIyMTU"><rect x="-50" y="-95" width="300" height="300" transform="matrix(1,0,0,1,0,0)" fill="rgb(255,255,255)"/></clipPath><g clip-path="url(#_clipPath_MXRSTpjtKnBESnvXHeHcxxsguLRIyMTU)"><g><g><mask id="_mask_Hvk9fSs5EpGyY0dp8u9KMdOGY2TxukhR" x="-200%" y="-200%" width="400%" height="400%"><rect x="-200%" y="-200%" width="400%" height="400%" style="fill:white;"/><path d=" M 181.087 31.004 C 122.49 139.828 79.263 139.828 19.705 30.024" fill="black" stroke="none"/></mask><path d=" M 181.087 31.004 C 122.49 139.828 79.263 139.828 19.705 30.024" fill="none" mask="url(#_mask_Hvk9fSs5EpGyY0dp8u9KMdOGY2TxukhR)" vector-effect="non-scaling-stroke" stroke-width="4" stroke="rgb(255,166,64)" stroke-opacity="100" stroke-linejoin="miter" stroke-linecap="square" stroke-miterlimit="3"/><path d=" M 181.087 31.004 C 122.49 139.828 79.263 139.828 19.705 30.024" fill="none"/><path d=" M 11.707 3.287 L 25.662 29.021 C 27.33 32.098 26.237 35.979 23.223 37.683 L 23.223 37.683 C 20.208 39.386 16.404 38.27 14.736 35.192 L 0.781 9.459 C -0.887 6.382 0.205 2.501 3.22 0.797 L 3.22 0.797 C 6.236 -0.906 10.039 0.21 11.707 3.287 Z " fill="rgb(235,235,235)"/><path d=" M 174.324 29.008 L 188.295 3.283 C 189.965 0.207 193.769 -0.906 196.783 0.799 L 196.783 0.799 C 199.797 2.505 200.887 6.386 199.217 9.463 L 185.246 35.187 C 183.575 38.263 179.771 39.376 176.758 37.671 L 176.758 37.671 C 173.744 35.966 172.653 32.084 174.324 29.008 Z " fill="rgb(235,235,235)"/></g></g></g></g></svg>