<?xml version="1.0" encoding="UTF-8" standalone="no"?><!-- Generator: Gravit.io --><svg xmlns="http://www.w3.org/2000/svg" xmlns:xlink="http://www.w3.org/1999/xlink" style="isolation:isolate" viewBox="0 0 300 300" width="300pt" height="300pt"><defs><clipPath id="_clipPath_cXFE02Zw4joqWC13KDEYTpuBYGDkyp3z"><rect width="300" height="300"/></clipPath></defs><g clip-path="url(#_clipPath_cXFE02Zw4joqWC13KDEYTpuBYGDkyp3z)"><g><path d=" M 234.412 124.249 C 173.412 235.249 128.412 235.249 66.412 123.249" fill="none" vector-effect="non-scaling-stroke" stroke-width="2" stroke="rgb(255,166,64)" stroke-linejoin="miter" stroke-linecap="square" stroke-miterlimit="3"/><path d="M 58.086 95.978 L 72.613 122.226 C 74.35 125.365 73.212 129.323 70.074 131.061 L 70.074 131.061 C 66.935 132.798 62.976 131.66 61.239 128.521 L 46.712 102.273 C 44.975 99.134 46.112 95.176 49.251 93.438 L 49.251 93.438 C 52.39 91.701 56.349 92.839 58.086 95.978 Z" style="stroke:none;fill:#EBEBEB;stroke-miterlimit:10;"/><path d="M 227.372 122.213 L 241.916 95.974 C 243.655 92.836 247.615 91.701 250.752 93.44 L 250.752 93.44 C 253.89 95.18 255.025 99.139 253.286 102.277 L 238.742 128.515 C 237.003 131.653 233.043 132.788 229.906 131.049 L 229.906 131.049 C 226.768 129.31 225.633 125.35 227.372 122.213 Z" style="stroke:none;fill:#EBEBEB;stroke-miterlimit:10;"/></g></g></svg>